# Blender 3.4.1
# www.blender.org
mtllib my_mesh.mtl
o Cube
v 0.511746 1.985238 1.313643
v 0.576503 -0.012606 1.247122
v -1.403118 1.942341 0.737922
v -1.338362 -0.055504 0.671401
v 1.085419 2.067569 -0.600546
v 1.150176 0.069725 -0.667068
v -0.829445 2.024671 -1.176267
v -0.764688 0.026827 -1.242788
vn -0.0324 0.9989 0.0333
vn -0.9574 -0.0214 -0.2879
vn 0.2868 0.0412 -0.9571
vn 0.0324 -0.9989 -0.0333
vn -0.2868 -0.0412 0.9571
vn 0.9574 0.0214 0.2879
vt 0.625000 0.500000
vt 0.375000 0.500000
vt 0.625000 0.750000
vt 0.375000 0.750000
vt 0.875000 0.500000
vt 0.625000 0.250000
vt 0.125000 0.500000
vt 0.375000 0.250000
vt 0.875000 0.750000
vt 0.625000 1.000000
vt 0.625000 0.000000
vt 0.375000 1.000000
vt 0.375000 0.000000
vt 0.125000 0.750000
s 0
usemtl Material
f 1/1/1 5/5/1 7/9/1 3/3/1
f 4/4/2 3/3/2 7/10/2 8/12/2
f 8/13/3 7/11/3 5/6/3 6/8/3
f 6/7/4 2/2/4 4/4/4 8/14/4
f 2/2/5 1/1/5 3/3/5 4/4/5
f 6/8/6 5/6/6 1/1/6 2/2/6
